<svg width="200" height="66" viewBox="0 0 383 112" fill="none" xmlns="http://www.w3.org/2000/svg">
<g clip-path="url(#clip0_1_1570)">
<path d="M136.22 0H133.79V112.09H136.22V0Z" fill="#1E3453"/>
<path fill-rule="evenodd" clip-rule="evenodd" d="M0.5 0.160004H83.58L89.25 5.83H6.17V106.26H106.6V23.18L112.27 28.85V111.93H0.5V0.160004Z" fill="#1E3453"/>
<path d="M23.0654 68.5449L33.9114 44.5749H37.5834L48.5654 68.5449H44.1114L41.1874 61.8129L42.9554 63.0029H28.5734L30.4094 61.8129L27.4854 68.5449H23.0654ZM35.7134 49.2669L30.9194 60.6229L30.0354 59.5689H41.4594L40.7454 60.6229L35.8494 49.2669H35.7134ZM51.2174 68.5449V44.5749H55.6034V64.8389H66.8914V68.5449H51.2174ZM80.0999 68.8849C77.6066 68.8849 75.4646 68.3863 73.6739 67.3889C71.9059 66.3689 70.5459 64.9409 69.5939 63.1049C68.6419 61.2463 68.1659 59.0589 68.1659 56.5429C68.1659 54.0269 68.6419 51.8509 69.5939 50.0149C70.5459 48.1789 71.9059 46.7623 73.6739 45.7649C75.4646 44.7449 77.6066 44.2349 80.0999 44.2349C81.7772 44.2349 83.2846 44.4729 84.6219 44.9489C85.9819 45.4249 87.1492 46.1276 88.1239 47.0569L86.6959 50.5249C85.6306 49.6636 84.5992 49.0516 83.6019 48.6889C82.6272 48.3036 81.5052 48.1109 80.2359 48.1109C77.8106 48.1109 75.9519 48.8476 74.6599 50.3209C73.3906 51.7716 72.7559 53.8456 72.7559 56.5429C72.7559 59.2403 73.3906 61.3256 74.6599 62.7989C75.9519 64.2723 77.8106 65.0089 80.2359 65.0089C81.5052 65.0089 82.6272 64.8276 83.6019 64.4649C84.5992 64.0796 85.6306 63.4449 86.6959 62.5609L88.1239 66.0289C87.1492 66.9356 85.9819 67.6383 84.6219 68.1369C83.2846 68.6356 81.7772 68.8849 80.0999 68.8849Z" fill="#013153"/>
<path fill-rule="evenodd" clip-rule="evenodd" d="M89.3604 0.159912H112.27V23.0699L106.6 17.3999V5.82991H95.0303L89.3604 0.159912Z" fill="#17B091"/>
<path d="M156.188 34.5449L166.846 10.9923H170.454L181.244 34.5449H176.868L173.995 27.9301L175.732 29.0994H161.601L163.405 27.9301L160.532 34.5449H156.188ZM168.616 15.6026L163.906 26.7609L163.037 25.7252H174.262L173.561 26.7609L168.75 15.6026H168.616ZM184.518 34.5449V10.9923H187.759L201.423 28.6651H200.554V10.9923H204.563V34.5449H201.323L187.692 16.8721H188.527V34.5449H184.518ZM221.764 34.879C219.114 34.879 216.887 34.389 215.083 33.409C213.279 32.4291 211.92 31.0371 211.007 29.233C210.094 27.429 209.637 25.2909 209.637 22.8187C209.637 20.3242 210.127 18.175 211.107 16.371C212.087 14.5447 213.49 13.1415 215.317 12.1616C217.165 11.1593 219.381 10.6582 221.965 10.6582C223.68 10.6582 225.183 10.8921 226.475 11.3598C227.767 11.8052 228.903 12.4622 229.883 13.3308L228.446 16.6716C227.733 16.1148 227.054 15.6694 226.408 15.3353C225.762 15.0012 225.094 14.7674 224.404 14.6338C223.713 14.4778 222.911 14.3999 221.998 14.3999C219.415 14.3999 217.455 15.1349 216.119 16.6048C214.804 18.0525 214.147 20.1349 214.147 22.8521C214.147 25.5693 214.771 27.6406 216.018 29.066C217.288 30.4914 219.27 31.2041 221.965 31.2041C222.878 31.2041 223.791 31.115 224.704 30.9369C225.64 30.7587 226.553 30.5026 227.444 30.1685L226.642 31.9725V24.9234H221.13V21.7831H230.217V33.1084C229.125 33.6652 227.822 34.0995 226.308 34.4113C224.793 34.7231 223.279 34.879 221.764 34.879ZM235.804 34.5449V10.9923H251.672V14.3665H239.946V20.881H250.904V24.2887H239.946V31.1373H251.672V34.5449H235.804ZM256.34 34.5449V10.9923H260.65V30.9034H271.742V34.5449H256.34ZM158.794 68.5449V44.9923H163.104V64.9034H174.195V68.5449H158.794ZM175.029 68.5449L185.686 44.9923H189.294L200.085 68.5449H195.708L192.835 61.9301L194.572 63.0994H180.441L182.245 61.9301L179.372 68.5449H175.029ZM187.457 49.6026L182.746 60.7609L181.877 59.7252H193.102L192.401 60.7609L187.59 49.6026H187.457ZM213.018 68.879C209.655 68.879 207.149 68.0438 205.501 66.3734C203.875 64.6807 203.062 62.1863 203.062 58.89V44.9923H207.372V58.8566C207.372 60.9502 207.817 62.5315 208.708 63.6005C209.621 64.6696 211.058 65.2041 213.018 65.2041C214.888 65.2041 216.292 64.6696 217.227 63.6005C218.185 62.5315 218.664 60.9502 218.664 58.8566V44.9923H222.906V58.89C222.906 62.1863 222.071 64.6807 220.401 66.3734C218.753 68.0438 216.292 68.879 213.018 68.879ZM228.594 68.5449V44.9923H231.834L245.498 62.6651H244.629V44.9923H248.638V68.5449H245.398L231.767 50.8721H232.602V68.5449H228.594ZM265.439 68.879C262.989 68.879 260.884 68.389 259.125 67.409C257.387 66.4068 256.051 65.0037 255.116 63.1996C254.18 61.3733 253.712 59.2241 253.712 56.7519C253.712 54.2797 254.18 52.1416 255.116 50.3376C256.051 48.5335 257.387 47.1415 259.125 46.1616C260.884 45.1593 262.989 44.6582 265.439 44.6582C267.087 44.6582 268.568 44.8921 269.882 45.3598C271.218 45.8275 272.365 46.5179 273.323 47.4311L271.92 50.8387C270.873 49.9923 269.86 49.391 268.88 49.0346C267.922 48.656 266.82 48.4667 265.572 48.4667C263.189 48.4667 261.363 49.1906 260.093 50.6382C258.846 52.0636 258.223 54.1015 258.223 56.7519C258.223 59.4023 258.846 61.4513 260.093 62.899C261.363 64.3466 263.189 65.0705 265.572 65.0705C266.82 65.0705 267.922 64.8923 268.88 64.536C269.86 64.1573 270.873 63.5337 271.92 62.6651L273.323 66.0727C272.365 66.9636 271.218 67.654 269.882 68.144C268.568 68.634 267.087 68.879 265.439 68.879ZM278.019 68.5449V44.9923H282.329V54.8142H294.389V44.9923H298.699V68.5449H294.389V58.3889H282.329V68.5449H278.019ZM304.559 68.5449V44.9923H315.016C317.599 44.9923 319.57 45.6159 320.929 46.8631C322.287 48.1104 322.967 49.8253 322.967 52.008C322.967 54.1683 322.287 55.8833 320.929 57.1528C319.57 58.4223 317.599 59.057 315.016 59.057H308.869V68.5449H304.559ZM308.869 55.6494H314.514C315.94 55.6494 317.009 55.3376 317.722 54.714C318.434 54.0681 318.791 53.1661 318.791 52.008C318.791 50.8498 318.434 49.9589 317.722 49.3353C317.009 48.6894 315.94 48.3665 314.514 48.3665H308.869V55.6494ZM322.425 68.5449L333.082 44.9923H336.69L347.481 68.5449H343.104L340.231 61.9301L341.968 63.0994H327.837L329.641 61.9301L326.768 68.5449H322.425ZM334.852 49.6026L330.142 60.7609L329.273 59.7252H340.498L339.797 60.7609L334.986 49.6026H334.852ZM350.755 68.5449V44.9923H359.307C362.002 44.9923 364.274 45.46 366.122 46.3954C367.993 47.3086 369.407 48.6449 370.365 50.4044C371.323 52.1416 371.802 54.2574 371.802 56.7519C371.802 59.2241 371.323 61.3399 370.365 63.0994C369.407 64.8589 367.993 66.2064 366.122 67.1418C364.274 68.0772 362.002 68.5449 359.307 68.5449H350.755ZM355.064 64.9703H359.04C361.891 64.9703 364.006 64.291 365.387 62.9324C366.768 61.5738 367.459 59.5136 367.459 56.7519C367.459 53.9679 366.768 51.9077 365.387 50.5714C364.006 49.2128 361.891 48.5335 359.04 48.5335H355.064V64.9703ZM166.411 102.545L155.921 78.9923H160.565L169.017 98.7698H167.614L176.066 78.9923H180.543L170.053 102.545H166.411ZM183.54 102.545V78.9923H199.409V82.3665H187.682V88.881H198.64V92.2887H187.682V99.1373H199.409V102.545H183.54ZM204.076 102.545V78.9923H207.317L220.981 96.6651H220.112V78.9923H224.121V102.545H220.881L207.25 84.8721H208.085V102.545H204.076ZM235.51 102.545V82.5335H227.725V78.9923H247.603V82.5335H239.819V102.545H235.51ZM261.138 102.879C257.775 102.879 255.269 102.044 253.621 100.373C251.995 98.6807 251.183 96.1863 251.183 92.89V78.9923H255.492V92.8566C255.492 94.9502 255.938 96.5315 256.829 97.6005C257.742 98.6696 259.178 99.2041 261.138 99.2041C263.009 99.2041 264.412 98.6696 265.348 97.6005C266.305 96.5315 266.784 94.9502 266.784 92.8566V78.9923H271.027V92.89C271.027 96.1863 270.192 98.6807 268.521 100.373C266.873 102.044 264.412 102.879 261.138 102.879ZM276.714 102.545V78.9923H287.004C289.587 78.9923 291.581 79.6048 292.984 80.8297C294.409 82.0547 295.122 83.7585 295.122 85.9411C295.122 87.3888 294.799 88.6249 294.153 89.6494C293.529 90.6739 292.627 91.4646 291.447 92.0214C290.267 92.5559 288.875 92.8232 287.271 92.8232L287.739 92.1884H288.875C289.81 92.1884 290.645 92.4334 291.38 92.9234C292.115 93.4134 292.717 94.1595 293.184 95.1618L296.625 102.545H291.881L288.407 94.8945C288.095 94.115 287.616 93.6027 286.97 93.3577C286.347 93.1127 285.59 92.9902 284.699 92.9902H281.024V102.545H276.714ZM281.024 89.8165H286.302C287.817 89.8165 288.964 89.5047 289.743 88.881C290.545 88.2352 290.946 87.2997 290.946 86.0748C290.946 84.8498 290.545 83.9255 289.743 83.3019C288.964 82.6783 287.817 82.3665 286.302 82.3665H281.024V89.8165ZM300.84 102.545V78.9923H316.708V82.3665H304.982V88.881H315.94V92.2887H304.982V99.1373H316.708V102.545H300.84ZM329.269 102.879C327.375 102.879 325.627 102.645 324.023 102.177C322.442 101.687 321.084 101.019 319.948 100.173L321.284 96.7987C322.041 97.3333 322.832 97.7898 323.656 98.1685C324.48 98.5248 325.36 98.8032 326.295 99.0037C327.231 99.1818 328.222 99.2709 329.269 99.2709C331.028 99.2709 332.298 98.9814 333.077 98.4023C333.857 97.8233 334.246 97.066 334.246 96.1306C334.246 95.3065 333.979 94.6829 333.445 94.2597C332.91 93.8143 331.952 93.4468 330.571 93.1573L326.796 92.3889C324.636 91.9434 323.021 91.1973 321.952 90.1506C320.883 89.1038 320.349 87.7006 320.349 85.9411C320.349 84.4712 320.738 83.1906 321.518 82.0992C322.297 81.0079 323.389 80.1616 324.792 79.5602C326.195 78.9589 327.832 78.6582 329.703 78.6582C331.373 78.6582 332.921 78.9032 334.347 79.3932C335.772 79.8609 336.964 80.5402 337.921 81.4311L336.585 84.6382C335.627 83.8364 334.58 83.2462 333.445 82.8676C332.309 82.4667 331.039 82.2663 329.636 82.2663C328.055 82.2663 326.819 82.5781 325.928 83.2017C325.059 83.803 324.625 84.6382 324.625 85.7073C324.625 86.5314 324.892 87.1884 325.427 87.6784C325.983 88.1683 326.919 88.547 328.233 88.8142L331.975 89.5492C334.202 89.9946 335.85 90.7296 336.919 91.7541C337.988 92.7564 338.523 94.115 338.523 95.8299C338.523 97.233 338.144 98.4691 337.387 99.5382C336.629 100.585 335.56 101.409 334.18 102.01C332.799 102.589 331.162 102.879 329.269 102.879Z" fill="#1E3453"/>
</g>
<defs>
<clipPath id="clip0_1_1570">
<rect width="383" height="112" fill="white"/>
</clipPath>
</defs>
</svg>
