<svg width="200" height="62" viewBox="0 0 214 62" fill="none" xmlns="http://www.w3.org/2000/svg">
<path d="M49 2H2V60H60.5V15.5" stroke="#364965" stroke-width="4" stroke-miterlimit="3.99933"/>
<path d="M51.5 2H61V10.5" stroke="#17B091" stroke-width="4"/>
<path d="M11 38L16.742 25.31H18.686L24.5 38H22.142L20.594 34.436L21.53 35.066H13.916L14.888 34.436L13.34 38H11ZM17.696 27.794L15.158 33.806L14.69 33.248H20.738L20.36 33.806L17.768 27.794H17.696ZM25.904 38V25.31H28.226V36.038H34.202V38H25.904ZM38.2346 38L32.5826 25.31H35.0846L39.6386 35.966H38.8826L43.4366 25.31H45.8486L40.1966 38H38.2346Z" fill="#364965"/>
<path d="M91 18L96.742 5.31H98.686L104.5 18H102.142L100.594 14.436L101.53 15.066H93.916L94.888 14.436L93.34 18H91ZM97.696 7.794L95.158 13.806L94.69 13.248H100.738L100.36 13.806L97.768 7.794H97.696ZM106.804 18V11.178C106.804 10.806 106.792 10.428 106.768 10.044C106.744 9.66 106.708 9.282 106.66 8.91H108.838L109.018 10.71H108.802C109.09 10.074 109.516 9.588 110.08 9.252C110.644 8.904 111.298 8.73 112.042 8.73C113.11 8.73 113.914 9.03 114.454 9.63C114.994 10.23 115.264 11.166 115.264 12.438V18H113.014V12.546C113.014 11.814 112.87 11.292 112.582 10.98C112.306 10.656 111.886 10.494 111.322 10.494C110.626 10.494 110.074 10.71 109.666 11.142C109.258 11.574 109.054 12.15 109.054 12.87V18H106.804ZM122.942 22.032C122.102 22.032 121.34 21.942 120.656 21.762C119.984 21.582 119.384 21.306 118.856 20.934L119.342 19.314C119.69 19.542 120.05 19.728 120.422 19.872C120.794 20.016 121.178 20.124 121.574 20.196C121.97 20.268 122.372 20.304 122.78 20.304C123.62 20.304 124.244 20.094 124.652 19.674C125.072 19.266 125.282 18.678 125.282 17.91V15.732H125.462C125.27 16.356 124.88 16.854 124.292 17.226C123.716 17.598 123.05 17.784 122.294 17.784C121.478 17.784 120.764 17.604 120.152 17.244C119.552 16.872 119.084 16.344 118.748 15.66C118.412 14.976 118.244 14.172 118.244 13.248C118.244 12.324 118.412 11.526 118.748 10.854C119.084 10.17 119.552 9.648 120.152 9.288C120.764 8.916 121.478 8.73 122.294 8.73C123.062 8.73 123.728 8.916 124.292 9.288C124.868 9.648 125.252 10.14 125.444 10.764L125.282 10.656L125.462 8.91H127.64C127.592 9.282 127.556 9.66 127.532 10.044C127.508 10.428 127.496 10.806 127.496 11.178V17.64C127.496 19.068 127.106 20.154 126.326 20.898C125.558 21.654 124.43 22.032 122.942 22.032ZM122.906 16.056C123.626 16.056 124.196 15.816 124.616 15.336C125.048 14.844 125.264 14.148 125.264 13.248C125.264 12.348 125.048 11.658 124.616 11.178C124.196 10.698 123.626 10.458 122.906 10.458C122.174 10.458 121.592 10.698 121.16 11.178C120.728 11.658 120.512 12.348 120.512 13.248C120.512 14.148 120.728 14.844 121.16 15.336C121.592 15.816 122.174 16.056 122.906 16.056ZM135.399 18.18C133.875 18.18 132.681 17.76 131.817 16.92C130.953 16.08 130.521 14.928 130.521 13.464C130.521 12.516 130.707 11.688 131.079 10.98C131.451 10.272 131.967 9.72 132.627 9.324C133.299 8.928 134.079 8.73 134.967 8.73C135.843 8.73 136.575 8.916 137.163 9.288C137.751 9.66 138.195 10.182 138.495 10.854C138.807 11.526 138.963 12.312 138.963 13.212V13.806H132.339V12.618H137.361L137.055 12.87C137.055 12.03 136.875 11.388 136.515 10.944C136.167 10.5 135.657 10.278 134.985 10.278C134.241 10.278 133.665 10.542 133.257 11.07C132.861 11.598 132.663 12.336 132.663 13.284V13.518C132.663 14.502 132.903 15.24 133.383 15.732C133.875 16.212 134.565 16.452 135.453 16.452C135.969 16.452 136.449 16.386 136.893 16.254C137.349 16.11 137.781 15.882 138.189 15.57L138.855 17.082C138.423 17.43 137.907 17.7 137.307 17.892C136.707 18.084 136.071 18.18 135.399 18.18ZM141.948 18V4.752H144.198V18H141.948ZM92.404 38V25.31H94.726V36.038H100.702V38H92.404ZM106.886 38.18C106.094 38.18 105.398 37.994 104.798 37.622C104.198 37.238 103.73 36.692 103.394 35.984C103.058 35.276 102.89 34.43 102.89 33.446C102.89 32.462 103.058 31.622 103.394 30.926C103.73 30.218 104.198 29.678 104.798 29.306C105.398 28.922 106.094 28.73 106.886 28.73C107.654 28.73 108.326 28.922 108.902 29.306C109.49 29.678 109.88 30.182 110.072 30.818H109.874L110.072 28.91H112.232C112.196 29.282 112.16 29.66 112.124 30.044C112.1 30.428 112.088 30.806 112.088 31.178V38H109.856L109.838 36.128H110.054C109.862 36.752 109.472 37.25 108.884 37.622C108.296 37.994 107.63 38.18 106.886 38.18ZM107.516 36.452C108.224 36.452 108.794 36.206 109.226 35.714C109.658 35.21 109.874 34.454 109.874 33.446C109.874 32.438 109.658 31.688 109.226 31.196C108.794 30.704 108.224 30.458 107.516 30.458C106.808 30.458 106.238 30.704 105.806 31.196C105.374 31.688 105.158 32.438 105.158 33.446C105.158 34.454 105.368 35.21 105.788 35.714C106.22 36.206 106.796 36.452 107.516 36.452ZM118.894 38.18C117.778 38.18 116.944 37.874 116.392 37.262C115.84 36.65 115.564 35.714 115.564 34.454V28.91H117.814V34.436C117.814 35.108 117.952 35.606 118.228 35.93C118.504 36.242 118.924 36.398 119.488 36.398C120.124 36.398 120.64 36.182 121.036 35.75C121.444 35.318 121.648 34.748 121.648 34.04V28.91H123.898V38H121.702V36.146H121.954C121.69 36.794 121.288 37.298 120.748 37.658C120.22 38.006 119.602 38.18 118.894 38.18ZM127.421 38V31.178C127.421 30.806 127.409 30.428 127.385 30.044C127.361 29.66 127.325 29.282 127.277 28.91H129.455L129.635 30.71H129.419C129.707 30.074 130.133 29.588 130.697 29.252C131.261 28.904 131.915 28.73 132.659 28.73C133.727 28.73 134.531 29.03 135.071 29.63C135.611 30.23 135.881 31.166 135.881 32.438V38H133.631V32.546C133.631 31.814 133.487 31.292 133.199 30.98C132.923 30.656 132.503 30.494 131.939 30.494C131.243 30.494 130.691 30.71 130.283 31.142C129.875 31.574 129.671 32.15 129.671 32.87V38H127.421ZM143.523 38.18C142.587 38.18 141.765 37.988 141.057 37.604C140.361 37.22 139.821 36.674 139.437 35.966C139.053 35.246 138.861 34.394 138.861 33.41C138.861 32.426 139.053 31.586 139.437 30.89C139.833 30.194 140.379 29.66 141.075 29.288C141.771 28.916 142.587 28.73 143.523 28.73C144.123 28.73 144.705 28.826 145.269 29.018C145.845 29.198 146.313 29.462 146.673 29.81L145.989 31.376C145.665 31.076 145.299 30.854 144.891 30.71C144.495 30.554 144.105 30.476 143.721 30.476C142.917 30.476 142.287 30.728 141.831 31.232C141.387 31.736 141.165 32.468 141.165 33.428C141.165 34.388 141.387 35.126 141.831 35.642C142.287 36.158 142.917 36.416 143.721 36.416C144.093 36.416 144.477 36.344 144.873 36.2C145.281 36.056 145.653 35.834 145.989 35.534L146.673 37.082C146.301 37.43 145.827 37.7 145.251 37.892C144.687 38.084 144.111 38.18 143.523 38.18ZM149.497 38V24.752H151.747V30.728H151.495C151.771 30.08 152.197 29.588 152.773 29.252C153.349 28.904 154.009 28.73 154.753 28.73C155.833 28.73 156.637 29.036 157.165 29.648C157.693 30.248 157.957 31.166 157.957 32.402V38H155.707V32.51C155.707 31.802 155.569 31.292 155.293 30.98C155.029 30.656 154.603 30.494 154.015 30.494C153.331 30.494 152.779 30.71 152.359 31.142C151.951 31.562 151.747 32.126 151.747 32.834V38H149.497ZM161.423 41.888V31.178C161.423 30.806 161.411 30.428 161.387 30.044C161.363 29.66 161.327 29.282 161.279 28.91H163.457L163.655 30.818H163.457C163.637 30.182 164.015 29.678 164.591 29.306C165.179 28.922 165.857 28.73 166.625 28.73C167.429 28.73 168.131 28.922 168.731 29.306C169.331 29.678 169.799 30.218 170.135 30.926C170.471 31.622 170.639 32.462 170.639 33.446C170.639 34.43 170.471 35.276 170.135 35.984C169.799 36.692 169.331 37.238 168.731 37.622C168.131 37.994 167.429 38.18 166.625 38.18C165.869 38.18 165.203 37.994 164.627 37.622C164.051 37.25 163.667 36.752 163.475 36.128H163.673V41.888H161.423ZM165.995 36.452C166.715 36.452 167.291 36.206 167.723 35.714C168.155 35.21 168.371 34.454 168.371 33.446C168.371 32.438 168.155 31.688 167.723 31.196C167.291 30.704 166.715 30.458 165.995 30.458C165.287 30.458 164.717 30.704 164.285 31.196C163.853 31.688 163.637 32.438 163.637 33.446C163.637 34.454 163.853 35.21 164.285 35.714C164.717 36.206 165.287 36.452 165.995 36.452ZM177.175 38.18C176.383 38.18 175.687 37.994 175.087 37.622C174.487 37.238 174.019 36.692 173.683 35.984C173.347 35.276 173.179 34.43 173.179 33.446C173.179 32.462 173.347 31.622 173.683 30.926C174.019 30.218 174.487 29.678 175.087 29.306C175.687 28.922 176.383 28.73 177.175 28.73C177.943 28.73 178.615 28.922 179.191 29.306C179.779 29.678 180.169 30.182 180.361 30.818H180.163L180.361 28.91H182.521C182.485 29.282 182.449 29.66 182.413 30.044C182.389 30.428 182.377 30.806 182.377 31.178V38H180.145L180.127 36.128H180.343C180.151 36.752 179.761 37.25 179.173 37.622C178.585 37.994 177.919 38.18 177.175 38.18ZM177.805 36.452C178.513 36.452 179.083 36.206 179.515 35.714C179.947 35.21 180.163 34.454 180.163 33.446C180.163 32.438 179.947 31.688 179.515 31.196C179.083 30.704 178.513 30.458 177.805 30.458C177.097 30.458 176.527 30.704 176.095 31.196C175.663 31.688 175.447 32.438 175.447 33.446C175.447 34.454 175.657 35.21 176.077 35.714C176.509 36.206 177.085 36.452 177.805 36.452ZM189.435 38.18C188.643 38.18 187.941 37.994 187.329 37.622C186.729 37.238 186.261 36.692 185.925 35.984C185.589 35.276 185.421 34.43 185.421 33.446C185.421 32.462 185.589 31.622 185.925 30.926C186.261 30.218 186.729 29.678 187.329 29.306C187.941 28.922 188.643 28.73 189.435 28.73C190.191 28.73 190.857 28.916 191.433 29.288C192.021 29.648 192.411 30.14 192.603 30.764H192.369V24.752H194.619V38H192.405V36.074H192.621C192.429 36.722 192.039 37.238 191.451 37.622C190.875 37.994 190.203 38.18 189.435 38.18ZM190.065 36.452C190.773 36.452 191.343 36.206 191.775 35.714C192.207 35.21 192.423 34.454 192.423 33.446C192.423 32.438 192.207 31.688 191.775 31.196C191.343 30.704 190.773 30.458 190.065 30.458C189.357 30.458 188.781 30.704 188.337 31.196C187.905 31.688 187.689 32.438 187.689 33.446C187.689 34.454 187.905 35.21 188.337 35.714C188.781 36.206 189.357 36.452 190.065 36.452ZM96.508 58L90.856 45.31H93.358L97.912 55.966H97.156L101.71 45.31H104.122L98.47 58H96.508ZM109.544 58.18C108.02 58.18 106.826 57.76 105.962 56.92C105.098 56.08 104.666 54.928 104.666 53.464C104.666 52.516 104.852 51.688 105.224 50.98C105.596 50.272 106.112 49.72 106.772 49.324C107.444 48.928 108.224 48.73 109.112 48.73C109.988 48.73 110.72 48.916 111.308 49.288C111.896 49.66 112.34 50.182 112.64 50.854C112.952 51.526 113.108 52.312 113.108 53.212V53.806H106.484V52.618H111.506L111.2 52.87C111.2 52.03 111.02 51.388 110.66 50.944C110.312 50.5 109.802 50.278 109.13 50.278C108.386 50.278 107.81 50.542 107.402 51.07C107.006 51.598 106.808 52.336 106.808 53.284V53.518C106.808 54.502 107.048 55.24 107.528 55.732C108.02 56.212 108.71 56.452 109.598 56.452C110.114 56.452 110.594 56.386 111.038 56.254C111.494 56.11 111.926 55.882 112.334 55.57L113 57.082C112.568 57.43 112.052 57.7 111.452 57.892C110.852 58.084 110.216 58.18 109.544 58.18ZM116.093 58V51.178C116.093 50.806 116.081 50.428 116.057 50.044C116.033 49.66 115.997 49.282 115.949 48.91H118.127L118.307 50.71H118.091C118.379 50.074 118.805 49.588 119.369 49.252C119.933 48.904 120.587 48.73 121.331 48.73C122.399 48.73 123.203 49.03 123.743 49.63C124.283 50.23 124.553 51.166 124.553 52.438V58H122.303V52.546C122.303 51.814 122.159 51.292 121.871 50.98C121.595 50.656 121.175 50.494 120.611 50.494C119.915 50.494 119.363 50.71 118.955 51.142C118.547 51.574 118.343 52.15 118.343 52.87V58H116.093ZM131.907 58.18C130.827 58.18 130.011 57.898 129.459 57.334C128.907 56.77 128.631 55.924 128.631 54.796V50.602H126.885V48.91H128.631V46.588L130.881 46.012V48.91H133.311V50.602H130.881V54.652C130.881 55.276 131.001 55.714 131.241 55.966C131.481 56.218 131.811 56.344 132.231 56.344C132.459 56.344 132.651 56.326 132.807 56.29C132.975 56.254 133.137 56.206 133.293 56.146V57.928C133.089 58.012 132.861 58.072 132.609 58.108C132.369 58.156 132.135 58.18 131.907 58.18ZM139.195 58.18C138.079 58.18 137.245 57.874 136.693 57.262C136.141 56.65 135.865 55.714 135.865 54.454V48.91H138.115V54.436C138.115 55.108 138.253 55.606 138.529 55.93C138.805 56.242 139.225 56.398 139.789 56.398C140.425 56.398 140.941 56.182 141.337 55.75C141.745 55.318 141.949 54.748 141.949 54.04V48.91H144.199V58H142.003V56.146H142.255C141.991 56.794 141.589 57.298 141.049 57.658C140.521 58.006 139.903 58.18 139.195 58.18ZM147.704 58V51.232C147.704 50.848 147.692 50.458 147.668 50.062C147.656 49.666 147.626 49.282 147.578 48.91H149.756L150.008 51.394H149.648C149.768 50.794 149.966 50.296 150.242 49.9C150.53 49.504 150.878 49.21 151.286 49.018C151.694 48.826 152.138 48.73 152.618 48.73C152.834 48.73 153.008 48.742 153.14 48.766C153.272 48.778 153.404 48.808 153.536 48.856L153.518 50.836C153.29 50.74 153.092 50.68 152.924 50.656C152.768 50.632 152.57 50.62 152.33 50.62C151.814 50.62 151.376 50.728 151.016 50.944C150.668 51.16 150.404 51.46 150.224 51.844C150.056 52.228 149.972 52.666 149.972 53.158V58H147.704ZM160.119 58.18C158.595 58.18 157.401 57.76 156.537 56.92C155.673 56.08 155.241 54.928 155.241 53.464C155.241 52.516 155.427 51.688 155.799 50.98C156.171 50.272 156.687 49.72 157.347 49.324C158.019 48.928 158.799 48.73 159.687 48.73C160.563 48.73 161.295 48.916 161.883 49.288C162.471 49.66 162.915 50.182 163.215 50.854C163.527 51.526 163.683 52.312 163.683 53.212V53.806H157.059V52.618H162.081L161.775 52.87C161.775 52.03 161.595 51.388 161.235 50.944C160.887 50.5 160.377 50.278 159.705 50.278C158.961 50.278 158.385 50.542 157.977 51.07C157.581 51.598 157.383 52.336 157.383 53.284V53.518C157.383 54.502 157.623 55.24 158.103 55.732C158.595 56.212 159.285 56.452 160.173 56.452C160.689 56.452 161.169 56.386 161.613 56.254C162.069 56.11 162.501 55.882 162.909 55.57L163.575 57.082C163.143 57.43 162.627 57.7 162.027 57.892C161.427 58.084 160.791 58.18 160.119 58.18ZM169.909 58.18C169.129 58.18 168.409 58.09 167.749 57.91C167.101 57.718 166.555 57.454 166.111 57.118L166.741 55.606C167.197 55.918 167.701 56.158 168.253 56.326C168.805 56.494 169.363 56.578 169.927 56.578C170.527 56.578 170.971 56.476 171.259 56.272C171.559 56.068 171.709 55.792 171.709 55.444C171.709 55.168 171.613 54.952 171.421 54.796C171.241 54.628 170.947 54.502 170.539 54.418L168.739 54.076C167.971 53.908 167.383 53.62 166.975 53.212C166.579 52.804 166.381 52.27 166.381 51.61C166.381 51.046 166.531 50.548 166.831 50.116C167.143 49.684 167.581 49.348 168.145 49.108C168.721 48.856 169.393 48.73 170.161 48.73C170.833 48.73 171.463 48.82 172.051 49C172.651 49.18 173.155 49.45 173.563 49.81L172.915 51.268C172.543 50.968 172.117 50.734 171.637 50.566C171.157 50.398 170.689 50.314 170.233 50.314C169.609 50.314 169.153 50.428 168.865 50.656C168.577 50.872 168.433 51.154 168.433 51.502C168.433 51.766 168.517 51.988 168.685 52.168C168.865 52.336 169.141 52.462 169.513 52.546L171.313 52.888C172.117 53.044 172.723 53.32 173.131 53.716C173.551 54.1 173.761 54.628 173.761 55.3C173.761 55.9 173.599 56.416 173.275 56.848C172.951 57.28 172.501 57.61 171.925 57.838C171.349 58.066 170.677 58.18 169.909 58.18Z" fill="black"/>
</svg>
