<svg width="19" height="19" viewBox="0 0 19 19" fill="none" xmlns="http://www.w3.org/2000/svg">
<g clip-path="url(#clip0_1_1160)">
<path d="M5.2944 17.1876C5.29466 16.8893 5.41336 16.6034 5.6244 16.3926L11.3784 10.6386C11.5526 10.4645 11.6907 10.2578 11.785 10.0302C11.8792 9.80273 11.9277 9.55887 11.9277 9.3126C11.9277 9.06633 11.8792 8.82247 11.785 8.59495C11.6907 8.36744 11.5526 8.16072 11.3784 7.9866L5.6319 2.2401C5.42697 2.02792 5.31358 1.74375 5.31614 1.44877C5.3187 1.1538 5.43702 0.871638 5.6456 0.663055C5.85419 0.454471 6.13635 0.336154 6.43132 0.333591C6.72629 0.331029 7.01047 0.444423 7.22265 0.649351L12.9691 6.39135C13.7418 7.16555 14.1758 8.21467 14.1758 9.30847C14.1758 10.4023 13.7418 11.4514 12.9691 12.2256L7.21515 17.9833C7.05781 18.1408 6.85731 18.248 6.63902 18.2915C6.42072 18.3349 6.19444 18.3126 5.98881 18.2274C5.78318 18.1423 5.60744 17.998 5.48383 17.8129C5.36022 17.6278 5.2943 17.4102 5.2944 17.1876Z" fill="black"/>
</g>
<defs>
<clipPath id="clip0_1_1160">
<rect width="18" height="18" fill="white" transform="translate(18.7344 18.3164) rotate(-180)"/>
</clipPath>
</defs>
</svg>
