<svg width="31" height="24" viewBox="0 0 31 24" fill="none" xmlns="http://www.w3.org/2000/svg">
<path d="M18.4427 15.2096C17.6963 15.7071 16.8294 15.9702 15.9355 15.9702C15.0418 15.9702 14.1748 15.7071 13.4284 15.2096L1.13529 7.01387C1.06743 6.9685 1.00082 6.92127 0.935547 6.87225L0.935547 20.3018C0.935547 21.8415 2.18506 23.0635 3.69725 23.0635H28.1738C29.7135 23.0635 30.9355 21.814 30.9355 20.3018V6.87219C30.8701 6.92135 30.8034 6.96867 30.7353 7.01411L18.4427 15.2096Z" fill="#17B091"/>
<path d="M2.11035 5.55129L14.4035 13.747C14.8688 14.0573 15.4022 14.2124 15.9355 14.2124C16.4689 14.2124 17.0022 14.0572 17.4676 13.747L29.7607 5.55129C30.4964 5.06115 30.9355 4.24084 30.9355 3.35549C30.9355 1.83316 29.6971 0.594727 28.1748 0.594727H3.69631C2.17404 0.594785 0.935548 1.83322 0.935548 3.35695C0.935092 3.79125 1.04213 4.21892 1.24712 4.6018C1.4521 4.98468 1.74867 5.31087 2.11035 5.55129Z" fill="#17B091"/>
</svg>
