<svg width="101" height="80" viewBox="0 0 101 80" fill="none" xmlns="http://www.w3.org/2000/svg">
<path d="M100.278 36.3314L76.3533 36.3314C76.3533 26.1439 80.4908 16.9314 87.1408 10.2689C87.1658 10.2439 87.2158 10.1939 87.2408 10.1689L87.2408 0.031348C79.5658 1.33135 72.6908 5.00636 67.4283 10.2689C60.7533 16.9439 56.6407 26.1439 56.6407 36.3314L56.6407 79.969L100.278 79.969L100.278 36.3314Z" fill="#0A0A0A" fill-opacity="0.2"/>
<path d="M43.916 79.969L43.916 36.3314L19.991 36.3314C19.991 26.1439 24.1285 16.9314 30.7785 10.2689C30.8035 10.2439 30.8535 10.1939 30.8785 10.1689L30.8785 0.031348C23.2035 1.33135 16.3285 5.00636 11.066 10.2689C4.39095 16.9314 0.278443 26.1314 0.278442 36.3314L0.278439 79.969L43.916 79.969Z" fill="#0A0A0A" fill-opacity="0.2"/>
</svg>
